<mxfile host="65bd71144e">
    <diagram id="GadtNJzQxku7CZxedXaD" name="Page-1">
        <mxGraphModel dx="853" dy="777" grid="1" gridSize="10" guides="1" tooltips="1" connect="1" arrows="1" fold="1" page="1" pageScale="1" pageWidth="1169" pageHeight="827" math="0" shadow="0">
            <root>
                <mxCell id="0"/>
                <mxCell id="1" parent="0"/>
                <mxCell id="4" value="" style="edgeStyle=none;html=1;fontFamily=Times New Roman;fontSize=18;" parent="1" source="2" target="3" edge="1">
                    <mxGeometry relative="1" as="geometry"/>
                </mxCell>
                <mxCell id="2" value="&lt;font style=&quot;font-size: 18px&quot;&gt;Given &lt;i style=&quot;font-size: 18px;&quot;&gt;&lt;b style=&quot;font-size: 18px;&quot;&gt;x&lt;/b&gt;&lt;sub style=&quot;font-size: 18px;&quot;&gt;i&lt;/sub&gt;&lt;/i&gt;, &lt;i style=&quot;font-size: 18px;&quot;&gt;&lt;b style=&quot;font-size: 18px;&quot;&gt;v&lt;/b&gt;&lt;sub style=&quot;font-size: 18px;&quot;&gt;i&lt;/sub&gt;&lt;/i&gt;, &lt;i style=&quot;font-size: 18px;&quot;&gt;&lt;b style=&quot;font-size: 18px;&quot;&gt;σ&lt;/b&gt;&lt;sub style=&quot;font-size: 18px;&quot;&gt;i&lt;/sub&gt;&lt;/i&gt;, &lt;b style=&quot;font-style: italic; font-size: 18px;&quot;&gt;ε&lt;/b&gt;&lt;sup style=&quot;font-style: italic; font-size: 18px;&quot;&gt;p&lt;/sup&gt;&lt;sub style=&quot;font-style: italic; font-size: 18px;&quot;&gt;i&lt;/sub&gt;&amp;nbsp;in particle &lt;i style=&quot;font-size: 18px;&quot;&gt;i&lt;/i&gt; at time &lt;i style=&quot;font-size: 18px;&quot;&gt;t&lt;/i&gt;&lt;/font&gt;" style="rounded=1;whiteSpace=wrap;html=1;fontStyle=0;fontFamily=Times New Roman;fontSize=18;" parent="1" vertex="1">
                    <mxGeometry x="80" y="20" width="340" height="40" as="geometry"/>
                </mxCell>
                <mxCell id="8" style="edgeStyle=none;html=1;exitX=0.5;exitY=1;exitDx=0;exitDy=0;entryX=0.5;entryY=0;entryDx=0;entryDy=0;fontFamily=Times New Roman;fontSize=18;" parent="1" source="3" target="5" edge="1">
                    <mxGeometry relative="1" as="geometry"/>
                </mxCell>
                <mxCell id="3" value="&lt;font style=&quot;font-size: 18px&quot;&gt;&lt;i style=&quot;font-size: 18px;&quot;&gt;&lt;b style=&quot;font-size: 18px;&quot;&gt;u&lt;/b&gt;&lt;sup style=&quot;font-size: 18px;&quot;&gt;m&lt;/sup&gt;&lt;sub style=&quot;font-size: 18px;&quot;&gt;i&lt;/sub&gt;&lt;/i&gt;&amp;nbsp;and &lt;i style=&quot;font-size: 18px;&quot;&gt;&lt;b style=&quot;font-size: 18px;&quot;&gt;σ&lt;/b&gt;&lt;sup style=&quot;font-size: 18px;&quot;&gt;m&lt;/sup&gt;&lt;sub style=&quot;font-size: 18px;&quot;&gt;i&lt;/sub&gt;&lt;/i&gt;&lt;/font&gt;" style="whiteSpace=wrap;html=1;rounded=1;fontStyle=0;fontFamily=Times New Roman;fontSize=18;" parent="1" vertex="1">
                    <mxGeometry x="170" y="140" width="160" height="40" as="geometry"/>
                </mxCell>
                <mxCell id="9" style="edgeStyle=none;html=1;exitX=0.5;exitY=1;exitDx=0;exitDy=0;fontFamily=Times New Roman;fontSize=18;" parent="1" source="5" target="6" edge="1">
                    <mxGeometry relative="1" as="geometry"/>
                </mxCell>
                <mxCell id="5" value="&lt;font style=&quot;font-size: 18px;&quot;&gt;&lt;span style=&quot;font-size: 18px&quot;&gt;Update boundary&lt;/span&gt;&lt;/font&gt;" style="whiteSpace=wrap;html=1;rounded=1;fontStyle=0;fontFamily=Times New Roman;fontSize=18;" parent="1" vertex="1">
                    <mxGeometry x="170" y="196" width="160" height="40" as="geometry"/>
                </mxCell>
                <mxCell id="10" style="edgeStyle=none;html=1;exitX=0.5;exitY=1;exitDx=0;exitDy=0;fontFamily=Times New Roman;fontSize=18;" parent="1" source="6" target="7" edge="1">
                    <mxGeometry relative="1" as="geometry"/>
                </mxCell>
                <mxCell id="6" value="&lt;font style=&quot;font-size: 18px;&quot;&gt;&lt;span style=&quot;font-size: 18px&quot;&gt;Check stress state &amp;amp; adapt stress&lt;/span&gt;&lt;/font&gt;" style="whiteSpace=wrap;html=1;rounded=1;fontStyle=0;fontFamily=Times New Roman;fontSize=18;" parent="1" vertex="1">
                    <mxGeometry x="110" y="253" width="280" height="40" as="geometry"/>
                </mxCell>
                <mxCell id="44" style="edgeStyle=none;html=1;exitX=0.5;exitY=1;exitDx=0;exitDy=0;entryX=0.5;entryY=0;entryDx=0;entryDy=0;" edge="1" parent="1" source="7" target="43">
                    <mxGeometry relative="1" as="geometry"/>
                </mxCell>
                <mxCell id="7" value="&lt;font style=&quot;font-size: 18px&quot;&gt;&lt;b style=&quot;font-style: italic; font-size: 18px;&quot;&gt;f&lt;/b&gt;&lt;span style=&quot;font-style: italic; font-size: 18px;&quot;&gt;&lt;sup style=&quot;font-size: 18px;&quot;&gt;σ&lt;/sup&gt;&lt;/span&gt;&lt;sub style=&quot;font-style: italic; font-size: 18px;&quot;&gt;i&lt;/sub&gt;&amp;nbsp;and &lt;i style=&quot;font-size: 18px;&quot;&gt;&lt;b style=&quot;font-size: 18px;&quot;&gt;f&lt;/b&gt;&lt;sup style=&quot;font-size: 18px;&quot;&gt;u&lt;/sup&gt;&lt;sub style=&quot;font-size: 18px;&quot;&gt;i&lt;/sub&gt;&lt;/i&gt;&lt;/font&gt;" style="whiteSpace=wrap;html=1;rounded=1;fontStyle=0;fontFamily=Times New Roman;fontSize=18;" parent="1" vertex="1">
                    <mxGeometry x="200" y="309" width="100" height="40" as="geometry"/>
                </mxCell>
                <mxCell id="16" style="edgeStyle=none;html=1;exitX=0.5;exitY=1;exitDx=0;exitDy=0;entryX=0.5;entryY=0;entryDx=0;entryDy=0;fontFamily=Times New Roman;fontSize=18;" parent="1" source="11" target="12" edge="1">
                    <mxGeometry relative="1" as="geometry"/>
                </mxCell>
                <mxCell id="11" value="&lt;font style=&quot;font-size: 18px&quot;&gt;&lt;i style=&quot;font-size: 18px;&quot;&gt;&lt;b style=&quot;font-size: 18px;&quot;&gt;f&lt;/b&gt;&lt;sup style=&quot;font-size: 18px;&quot;&gt;ext&lt;/sup&gt;&lt;sub style=&quot;font-size: 18px;&quot;&gt;i&lt;/sub&gt;&lt;/i&gt;&lt;/font&gt;" style="whiteSpace=wrap;html=1;rounded=1;fontStyle=0;fontFamily=Times New Roman;fontSize=18;" parent="1" vertex="1">
                    <mxGeometry x="200" y="422" width="100" height="40" as="geometry"/>
                </mxCell>
                <mxCell id="17" style="edgeStyle=none;html=1;exitX=0.5;exitY=1;exitDx=0;exitDy=0;entryX=0.5;entryY=0;entryDx=0;entryDy=0;fontFamily=Times New Roman;fontSize=18;" parent="1" source="12" target="13" edge="1">
                    <mxGeometry relative="1" as="geometry"/>
                </mxCell>
                <mxCell id="12" value="&lt;font style=&quot;font-size: 18px&quot;&gt;&lt;i style=&quot;font-size: 18px;&quot;&gt;&lt;b style=&quot;font-size: 18px;&quot;&gt;g&lt;/b&gt;&lt;sup style=&quot;font-size: 18px;&quot;&gt;εp&lt;/sup&gt;&lt;sub style=&quot;font-size: 18px;&quot;&gt;i&lt;/sub&gt;&lt;/i&gt;&lt;/font&gt;" style="whiteSpace=wrap;html=1;rounded=1;fontStyle=0;fontFamily=Times New Roman;fontSize=18;" parent="1" vertex="1">
                    <mxGeometry x="200" y="478" width="100" height="40" as="geometry"/>
                </mxCell>
                <mxCell id="18" style="edgeStyle=none;html=1;exitX=0.5;exitY=1;exitDx=0;exitDy=0;entryX=0.5;entryY=0;entryDx=0;entryDy=0;fontFamily=Times New Roman;fontSize=18;" parent="1" source="13" target="14" edge="1">
                    <mxGeometry relative="1" as="geometry"/>
                </mxCell>
                <mxCell id="13" value="&lt;font style=&quot;font-size: 18px&quot;&gt;&lt;span style=&quot;font-style: italic ; font-size: 18px&quot;&gt;ω&lt;/span&gt;&lt;sub style=&quot;font-style: italic ; font-size: 18px&quot;&gt;i&lt;/sub&gt;&amp;nbsp;and Jaumman&amp;nbsp;&lt;i style=&quot;font-size: 18px&quot;&gt;&lt;b style=&quot;font-size: 18px&quot;&gt;σ&lt;/b&gt;&lt;sup style=&quot;font-size: 18px&quot;&gt;~&lt;/sup&gt;&lt;sub style=&quot;font-size: 18px&quot;&gt;i&lt;/sub&gt;&lt;/i&gt;&lt;/font&gt;" style="whiteSpace=wrap;html=1;rounded=1;fontStyle=0;fontFamily=Times New Roman;fontSize=18;" parent="1" vertex="1">
                    <mxGeometry x="160" y="535" width="180" height="40" as="geometry"/>
                </mxCell>
                <mxCell id="21" style="edgeStyle=none;html=1;exitX=0.5;exitY=1;exitDx=0;exitDy=0;entryX=0.5;entryY=0;entryDx=0;entryDy=0;fontFamily=Times New Roman;fontSize=18;" parent="1" source="14" target="20" edge="1">
                    <mxGeometry relative="1" as="geometry"/>
                </mxCell>
                <mxCell id="14" value="&lt;font style=&quot;font-size: 18px;&quot;&gt;&lt;span style=&quot;font-weight: bold ; font-style: italic ; font-size: 18px&quot;&gt;F&lt;/span&gt;&lt;span style=&quot;font-size: 18px;&quot;&gt;&lt;sub style=&quot;font-size: 18px;&quot;&gt;1&lt;/sub&gt;(&lt;/span&gt;&lt;/font&gt;&lt;i style=&quot;font-size: 18px;&quot;&gt;&lt;b style=&quot;font-size: 18px;&quot;&gt;σ&lt;/b&gt;&lt;sup style=&quot;font-size: 18px;&quot;&gt;m&lt;/sup&gt;&lt;sub style=&quot;font-size: 18px;&quot;&gt;i&lt;/sub&gt;&lt;/i&gt;&lt;font style=&quot;font-size: 18px;&quot;&gt;&lt;span style=&quot;font-size: 18px;&quot;&gt;)&lt;/span&gt;&lt;span style=&quot;font-size: 18px&quot;&gt;&amp;nbsp;and &lt;/span&gt;&lt;b style=&quot;font-size: 18px ; font-style: italic&quot;&gt;F&lt;/b&gt;&lt;span style=&quot;font-size: 18px&quot;&gt;&lt;sub style=&quot;font-size: 18px;&quot;&gt;2&lt;/sub&gt;&lt;/span&gt;&lt;/font&gt;&lt;font style=&quot;font-size: 18px;&quot;&gt;&lt;span style=&quot;font-size: 18px;&quot;&gt;(&lt;/span&gt;&lt;/font&gt;&lt;i style=&quot;font-size: 18px;&quot;&gt;&lt;b style=&quot;font-size: 18px;&quot;&gt;u&lt;/b&gt;&lt;sup style=&quot;font-size: 18px;&quot;&gt;m&lt;/sup&gt;&lt;sub style=&quot;font-size: 18px;&quot;&gt;i&lt;/sub&gt;,&amp;nbsp;&lt;/i&gt;&lt;i style=&quot;font-size: 18px;&quot;&gt;&lt;b style=&quot;font-size: 18px;&quot;&gt;σ&lt;/b&gt;&lt;sup style=&quot;font-size: 18px;&quot;&gt;m&lt;/sup&gt;&lt;sub style=&quot;font-size: 18px;&quot;&gt;i&lt;/sub&gt;&lt;/i&gt;&lt;font style=&quot;font-size: 18px;&quot;&gt;&lt;span style=&quot;font-size: 18px;&quot;&gt;)&lt;/span&gt;&lt;span style=&quot;font-size: 18px&quot;&gt;&amp;nbsp;&lt;/span&gt;&lt;/font&gt;" style="whiteSpace=wrap;html=1;rounded=1;fontStyle=0;fontFamily=Times New Roman;fontSize=18;" parent="1" vertex="1">
                    <mxGeometry x="130" y="591" width="240" height="40" as="geometry"/>
                </mxCell>
                <mxCell id="25" style="edgeStyle=orthogonalEdgeStyle;html=1;exitX=0;exitY=0.5;exitDx=0;exitDy=0;entryX=0;entryY=0.5;entryDx=0;entryDy=0;fontFamily=Times New Roman;fontSize=18;" parent="1" source="19" target="3" edge="1">
                    <mxGeometry relative="1" as="geometry">
                        <Array as="points">
                            <mxPoint x="80" y="724"/>
                            <mxPoint x="80" y="160"/>
                        </Array>
                    </mxGeometry>
                </mxCell>
                <mxCell id="26" value="&lt;font style=&quot;font-size: 18px&quot;&gt;N&lt;/font&gt;" style="edgeLabel;html=1;align=center;verticalAlign=middle;resizable=0;points=[];fontFamily=Times New Roman;fontSize=18;" parent="25" vertex="1" connectable="0">
                    <mxGeometry x="-0.3275" y="-2" relative="1" as="geometry">
                        <mxPoint x="48" y="145" as="offset"/>
                    </mxGeometry>
                </mxCell>
                <mxCell id="28" style="edgeStyle=orthogonalEdgeStyle;html=1;exitX=1;exitY=0.5;exitDx=0;exitDy=0;entryX=0.5;entryY=0;entryDx=0;entryDy=0;fontFamily=Times New Roman;fontSize=18;" parent="1" source="19" target="27" edge="1">
                    <mxGeometry relative="1" as="geometry">
                        <Array as="points">
                            <mxPoint x="460" y="724"/>
                            <mxPoint x="460" y="100"/>
                            <mxPoint x="580" y="100"/>
                        </Array>
                    </mxGeometry>
                </mxCell>
                <mxCell id="30" value="&lt;font style=&quot;font-size: 18px&quot;&gt;Y&lt;/font&gt;" style="edgeLabel;html=1;align=center;verticalAlign=middle;resizable=0;points=[];fontFamily=Times New Roman;fontSize=18;" parent="28" vertex="1" connectable="0">
                    <mxGeometry x="-0.7157" y="2" relative="1" as="geometry">
                        <mxPoint x="-78" y="-20" as="offset"/>
                    </mxGeometry>
                </mxCell>
                <mxCell id="19" value="&lt;font style=&quot;font-size: 18px&quot;&gt;&lt;i style=&quot;font-size: 18px;&quot;&gt;m&lt;/i&gt;&amp;nbsp;≥ 4?&lt;/font&gt;" style="rhombus;whiteSpace=wrap;html=1;fontFamily=Times New Roman;fontSize=18;" parent="1" vertex="1">
                    <mxGeometry x="170" y="704" width="160" height="40" as="geometry"/>
                </mxCell>
                <mxCell id="22" style="edgeStyle=none;html=1;exitX=0.5;exitY=1;exitDx=0;exitDy=0;entryX=0.5;entryY=0;entryDx=0;entryDy=0;fontFamily=Times New Roman;fontSize=18;" parent="1" source="20" target="19" edge="1">
                    <mxGeometry relative="1" as="geometry"/>
                </mxCell>
                <mxCell id="20" value="&lt;font style=&quot;font-size: 18px&quot;&gt;&lt;i style=&quot;font-size: 18px;&quot;&gt;m&lt;/i&gt;&amp;nbsp;+= 1&lt;/font&gt;" style="whiteSpace=wrap;html=1;rounded=1;fontStyle=0;fontFamily=Times New Roman;fontSize=18;" parent="1" vertex="1">
                    <mxGeometry x="200" y="648" width="100" height="40" as="geometry"/>
                </mxCell>
                <mxCell id="24" value="&lt;font style=&quot;font-size: 18px&quot;&gt;&lt;i style=&quot;font-size: 18px;&quot;&gt;m&lt;/i&gt;&amp;nbsp;= 1&lt;/font&gt;" style="whiteSpace=wrap;html=1;rounded=1;fontStyle=0;fontFamily=Times New Roman;fontSize=18;" parent="1" vertex="1">
                    <mxGeometry x="200" y="80" width="100" height="40" as="geometry"/>
                </mxCell>
                <mxCell id="32" style="edgeStyle=orthogonalEdgeStyle;html=1;exitX=0.5;exitY=1;exitDx=0;exitDy=0;entryX=0.5;entryY=0;entryDx=0;entryDy=0;fontFamily=Times New Roman;fontSize=18;" parent="1" source="27" target="31" edge="1">
                    <mxGeometry relative="1" as="geometry"/>
                </mxCell>
                <mxCell id="27" value="&lt;font style=&quot;font-size: 18px&quot;&gt;&lt;b style=&quot;font-style: italic; font-size: 18px;&quot;&gt;v&lt;/b&gt;&lt;sup style=&quot;font-size: 18px;&quot;&gt;&lt;i style=&quot;font-size: 18px;&quot;&gt;t+&lt;/i&gt;Δ&lt;i style=&quot;font-size: 18px;&quot;&gt;t&lt;/i&gt;&lt;/sup&gt;&lt;sub style=&quot;font-style: italic; font-size: 18px;&quot;&gt;i&lt;/sub&gt;&amp;nbsp;and &lt;i style=&quot;font-size: 18px;&quot;&gt;&lt;b style=&quot;font-size: 18px;&quot;&gt;σ&lt;/b&gt;&lt;/i&gt;&lt;/font&gt;&lt;sup style=&quot;font-size: 18px;&quot;&gt;&lt;i style=&quot;font-size: 18px;&quot;&gt;t+&lt;/i&gt;&lt;span style=&quot;font-size: 18px;&quot;&gt;Δ&lt;/span&gt;&lt;i style=&quot;font-size: 18px;&quot;&gt;t&lt;/i&gt;&lt;/sup&gt;&lt;font style=&quot;font-size: 18px&quot;&gt;&lt;i style=&quot;font-size: 18px;&quot;&gt;&lt;sub style=&quot;font-size: 18px;&quot;&gt;i&lt;/sub&gt;&lt;/i&gt;&lt;/font&gt;" style="whiteSpace=wrap;html=1;rounded=1;fontStyle=0;fontFamily=Times New Roman;fontSize=18;" parent="1" vertex="1">
                    <mxGeometry x="490" y="140" width="180" height="40" as="geometry"/>
                </mxCell>
                <mxCell id="31" value="&lt;font style=&quot;font-size: 18px&quot;&gt;&lt;i style=&quot;font-size: 18px;&quot;&gt;&lt;b style=&quot;font-size: 18px;&quot;&gt;x&lt;/b&gt;&lt;/i&gt;&lt;/font&gt;&lt;sup style=&quot;font-size: 18px;&quot;&gt;&lt;i style=&quot;font-size: 18px;&quot;&gt;t+&lt;/i&gt;&lt;span style=&quot;font-size: 18px;&quot;&gt;Δ&lt;/span&gt;&lt;i style=&quot;font-size: 18px;&quot;&gt;t&lt;/i&gt;&lt;/sup&gt;&lt;font style=&quot;font-size: 18px&quot;&gt;&lt;i style=&quot;font-size: 18px;&quot;&gt;&lt;sub style=&quot;font-size: 18px;&quot;&gt;i&lt;/sub&gt;&lt;/i&gt;&lt;/font&gt;" style="whiteSpace=wrap;html=1;rounded=1;fontStyle=0;fontFamily=Times New Roman;fontSize=18;" parent="1" vertex="1">
                    <mxGeometry x="530" y="198" width="100" height="40" as="geometry"/>
                </mxCell>
                <mxCell id="33" value="&lt;font style=&quot;font-size: 18px&quot; face=&quot;Times New Roman&quot;&gt;&lt;i&gt;kern&lt;/i&gt;&lt;/font&gt;" style="ellipse;whiteSpace=wrap;html=1;aspect=fixed;" parent="1" vertex="1">
                    <mxGeometry x="400" y="140" width="37" height="37" as="geometry"/>
                </mxCell>
                <mxCell id="34" value="&lt;font style=&quot;font-size: 18px&quot; face=&quot;Times New Roman&quot;&gt;&lt;i&gt;kern&lt;/i&gt;&lt;/font&gt;" style="ellipse;whiteSpace=wrap;html=1;aspect=fixed;" parent="1" vertex="1">
                    <mxGeometry x="400" y="197" width="37" height="37" as="geometry"/>
                </mxCell>
                <mxCell id="35" value="&lt;font style=&quot;font-size: 18px&quot; face=&quot;Times New Roman&quot;&gt;&lt;i&gt;kern&lt;/i&gt;&lt;/font&gt;" style="ellipse;whiteSpace=wrap;html=1;aspect=fixed;" parent="1" vertex="1">
                    <mxGeometry x="400" y="253" width="37" height="37" as="geometry"/>
                </mxCell>
                <mxCell id="36" value="&lt;font style=&quot;font-size: 18px&quot; face=&quot;Times New Roman&quot;&gt;&lt;i&gt;func&lt;/i&gt;&lt;/font&gt;" style="ellipse;whiteSpace=wrap;html=1;aspect=fixed;" parent="1" vertex="1">
                    <mxGeometry x="400" y="592.5" width="37" height="37" as="geometry"/>
                </mxCell>
                <mxCell id="37" value="&lt;font face=&quot;Times New Roman&quot;&gt;&lt;span style=&quot;font-size: 18px&quot;&gt;&lt;i&gt;?&lt;/i&gt;&lt;/span&gt;&lt;/font&gt;" style="ellipse;whiteSpace=wrap;html=1;aspect=fixed;" parent="1" vertex="1">
                    <mxGeometry x="400" y="423" width="37" height="37" as="geometry"/>
                </mxCell>
                <mxCell id="38" value="&lt;font face=&quot;Times New Roman&quot;&gt;&lt;span style=&quot;font-size: 18px&quot;&gt;&lt;i&gt;?&lt;/i&gt;&lt;/span&gt;&lt;/font&gt;" style="ellipse;whiteSpace=wrap;html=1;aspect=fixed;" parent="1" vertex="1">
                    <mxGeometry x="400" y="479" width="37" height="37" as="geometry"/>
                </mxCell>
                <mxCell id="39" value="&lt;font face=&quot;Times New Roman&quot;&gt;&lt;span style=&quot;font-size: 18px&quot;&gt;&lt;i&gt;?&lt;/i&gt;&lt;/span&gt;&lt;/font&gt;" style="ellipse;whiteSpace=wrap;html=1;aspect=fixed;" parent="1" vertex="1">
                    <mxGeometry x="400" y="536" width="37" height="37" as="geometry"/>
                </mxCell>
                <mxCell id="40" value="&lt;font style=&quot;font-size: 18px&quot; face=&quot;Times New Roman&quot;&gt;&lt;i&gt;kern&lt;/i&gt;&lt;/font&gt;" style="ellipse;whiteSpace=wrap;html=1;aspect=fixed;" parent="1" vertex="1">
                    <mxGeometry x="400" y="310" width="37" height="37" as="geometry"/>
                </mxCell>
                <mxCell id="41" value="&lt;font style=&quot;font-size: 18px&quot; face=&quot;Times New Roman&quot;&gt;&lt;i&gt;kern&lt;/i&gt;&lt;/font&gt;" style="ellipse;whiteSpace=wrap;html=1;aspect=fixed;" parent="1" vertex="1">
                    <mxGeometry x="680" y="199.5" width="37" height="37" as="geometry"/>
                </mxCell>
                <mxCell id="42" value="&lt;font style=&quot;font-size: 18px&quot; face=&quot;Times New Roman&quot;&gt;&lt;i&gt;kern&lt;/i&gt;&lt;/font&gt;" style="ellipse;whiteSpace=wrap;html=1;aspect=fixed;" parent="1" vertex="1">
                    <mxGeometry x="680" y="141.5" width="37" height="37" as="geometry"/>
                </mxCell>
                <mxCell id="45" style="edgeStyle=none;html=1;exitX=0.5;exitY=1;exitDx=0;exitDy=0;entryX=0.5;entryY=0;entryDx=0;entryDy=0;" edge="1" parent="1" source="43" target="11">
                    <mxGeometry relative="1" as="geometry"/>
                </mxCell>
                <mxCell id="43" value="&lt;font style=&quot;font-size: 18px&quot;&gt;&lt;span style=&quot;font-size: 18px&quot;&gt;(∇·&lt;/span&gt;&lt;b style=&quot;font-style: italic&quot;&gt;f&lt;/b&gt;&lt;span style=&quot;font-style: italic&quot;&gt;&lt;sup style=&quot;font-size: 18px&quot;&gt;σ&lt;/sup&gt;&lt;/span&gt;&lt;span style=&quot;font-size: 18px&quot;&gt;)&lt;/span&gt;&lt;sub style=&quot;font-style: italic ; font-size: 18px&quot;&gt;i&lt;/sub&gt;&amp;nbsp;and (∇·&lt;b style=&quot;font-style: italic&quot;&gt;f&lt;/b&gt;&lt;span style=&quot;font-style: italic&quot;&gt;&lt;sup style=&quot;font-size: 18px&quot;&gt;u&lt;/sup&gt;&lt;/span&gt;)&lt;i style=&quot;font-size: 18px&quot;&gt;&lt;sub style=&quot;font-size: 18px&quot;&gt;i&lt;/sub&gt;&lt;/i&gt;&lt;/font&gt;" style="whiteSpace=wrap;html=1;rounded=1;fontStyle=0;fontFamily=Times New Roman;fontSize=18;" vertex="1" parent="1">
                    <mxGeometry x="160" y="366" width="180" height="40" as="geometry"/>
                </mxCell>
                <mxCell id="46" value="&lt;font style=&quot;font-size: 18px&quot; face=&quot;Times New Roman&quot;&gt;&lt;i&gt;?&lt;/i&gt;&lt;/font&gt;" style="ellipse;whiteSpace=wrap;html=1;aspect=fixed;" vertex="1" parent="1">
                    <mxGeometry x="400" y="366" width="37" height="37" as="geometry"/>
                </mxCell>
            </root>
        </mxGraphModel>
    </diagram>
</mxfile>